<svg width="26" height="27" viewBox="0 0 26 27" fill="none" xmlns="http://www.w3.org/2000/svg">
<path d="M0 1.36667C0 1.13681 0.0913093 0.916372 0.253841 0.753841C0.416372 0.591309 0.636812 0.5 0.866667 0.5H3.46667C3.65999 0.500053 3.84774 0.564741 4.00007 0.683776C4.15239 0.802811 4.26055 0.969359 4.30733 1.15693L5.00933 3.96667H25.1333C25.2606 3.96678 25.3863 3.99492 25.5014 4.04909C25.6166 4.10325 25.7184 4.18211 25.7996 4.28006C25.8809 4.37801 25.9395 4.49265 25.9715 4.61583C26.0034 4.73901 26.0078 4.86772 25.9844 4.9928L23.3844 18.8595C23.3472 19.0581 23.2418 19.2374 23.0864 19.3666C22.931 19.4957 22.7354 19.5665 22.5333 19.5667H6.93333C6.73128 19.5665 6.53565 19.4957 6.38024 19.3666C6.22484 19.2374 6.11944 19.0581 6.08227 18.8595L3.484 5.0188L2.79067 2.23333H0.866667C0.636812 2.23333 0.416372 2.14202 0.253841 1.97949C0.0913093 1.81696 0 1.59652 0 1.36667ZM5.3768 5.7L7.65267 17.8333H21.814L24.0899 5.7H5.3768ZM8.66667 19.5667C7.74725 19.5667 6.86549 19.9319 6.21536 20.582C5.56524 21.2322 5.2 22.1139 5.2 23.0333C5.2 23.9528 5.56524 24.8345 6.21536 25.4846C6.86549 26.1348 7.74725 26.5 8.66667 26.5C9.58608 26.5 10.4678 26.1348 11.118 25.4846C11.7681 24.8345 12.1333 23.9528 12.1333 23.0333C12.1333 22.1139 11.7681 21.2322 11.118 20.582C10.4678 19.9319 9.58608 19.5667 8.66667 19.5667ZM20.8 19.5667C19.8806 19.5667 18.9988 19.9319 18.3487 20.582C17.6986 21.2322 17.3333 22.1139 17.3333 23.0333C17.3333 23.9528 17.6986 24.8345 18.3487 25.4846C18.9988 26.1348 19.8806 26.5 20.8 26.5C21.7194 26.5 22.6012 26.1348 23.2513 25.4846C23.9014 24.8345 24.2667 23.9528 24.2667 23.0333C24.2667 22.1139 23.9014 21.2322 23.2513 20.582C22.6012 19.9319 21.7194 19.5667 20.8 19.5667ZM8.66667 21.3C9.12638 21.3 9.56725 21.4826 9.89232 21.8077C10.2174 22.1327 10.4 22.5736 10.4 23.0333C10.4 23.493 10.2174 23.9339 9.89232 24.259C9.56725 24.584 9.12638 24.7667 8.66667 24.7667C8.20696 24.7667 7.76608 24.584 7.44101 24.259C7.11595 23.9339 6.93333 23.493 6.93333 23.0333C6.93333 22.5736 7.11595 22.1327 7.44101 21.8077C7.76608 21.4826 8.20696 21.3 8.66667 21.3ZM20.8 21.3C21.2597 21.3 21.7006 21.4826 22.0257 21.8077C22.3507 22.1327 22.5333 22.5736 22.5333 23.0333C22.5333 23.493 22.3507 23.9339 22.0257 24.259C21.7006 24.584 21.2597 24.7667 20.8 24.7667C20.3403 24.7667 19.8994 24.584 19.5743 24.259C19.2493 23.9339 19.0667 23.493 19.0667 23.0333C19.0667 22.5736 19.2493 22.1327 19.5743 21.8077C19.8994 21.4826 20.3403 21.3 20.8 21.3Z" fill="#F8F5F1"/>
</svg>
