<svg width="13" height="20" viewBox="0 0 13 20" fill="none" xmlns="http://www.w3.org/2000/svg">
<path fill-rule="evenodd" clip-rule="evenodd" d="M6.5 1.25C6.66576 1.25 6.82473 1.31585 6.94194 1.43306C7.05915 1.55027 7.125 1.70924 7.125 1.875V16.6163L11.0575 12.6825C11.1749 12.5651 11.334 12.4992 11.5 12.4992C11.666 12.4992 11.8251 12.5651 11.9425 12.6825C12.0599 12.7999 12.1258 12.959 12.1258 13.125C12.1258 13.291 12.0599 13.4501 11.9425 13.5675L6.9425 18.5675C6.88444 18.6257 6.81547 18.6719 6.73954 18.7034C6.66361 18.7349 6.5822 18.7511 6.5 18.7511C6.41779 18.7511 6.33639 18.7349 6.26045 18.7034C6.18452 18.6719 6.11555 18.6257 6.0575 18.5675L1.0575 13.5675C0.940138 13.4501 0.874207 13.291 0.874207 13.125C0.874207 12.959 0.940138 12.7999 1.0575 12.6825C1.17485 12.5651 1.33403 12.4992 1.5 12.4992C1.66597 12.4992 1.82514 12.5651 1.9425 12.6825L5.875 16.6163V1.875C5.875 1.70924 5.94084 1.55027 6.05805 1.43306C6.17526 1.31585 6.33423 1.25 6.5 1.25Z" fill="#F8F5F1" stroke="#F8F5F1"/>
</svg>
