<svg width="28" height="28" viewBox="0 0 28 28" fill="none" xmlns="http://www.w3.org/2000/svg">
<path d="M24.3703 0.666626H3.62959C1.99996 0.666626 0.666626 1.99996 0.666626 3.62959V24.3703C0.666626 26.0014 1.99996 27.3333 3.62959 27.3333H14V16.9629H11.037V13.2963H14V10.2592C14 7.05329 15.7955 4.80144 19.5792 4.80144L22.2503 4.8044V8.66366H20.477C19.0044 8.66366 18.4444 9.76885 18.4444 10.794V13.2977H22.2488L21.4074 16.9629H18.4444V27.3333H24.3703C26 27.3333 27.3333 26.0014 27.3333 24.3703V3.62959C27.3333 1.99996 26 0.666626 24.3703 0.666626Z" fill="#F8F5F1"/>
</svg>
