<svg width="28" height="28" viewBox="0 0 28 28" fill="none" xmlns="http://www.w3.org/2000/svg">
<path fill-rule="evenodd" clip-rule="evenodd" d="M8.45905 0.640577C9.89225 0.574598 10.3492 0.559937 14 0.559937C17.6508 0.559937 18.1078 0.57582 19.5397 0.640577C20.9717 0.705333 21.9491 0.933813 22.8044 1.26493C23.7 1.60337 24.5125 2.13242 25.1845 2.81663C25.8687 3.48741 26.3966 4.2987 26.7338 5.19552C27.0661 6.05079 27.2934 7.02824 27.3594 8.45777C27.4253 9.89341 27.44 10.3504 27.44 13.9999C27.44 17.6507 27.4241 18.1077 27.3594 19.5409C27.2946 20.9704 27.0661 21.9479 26.7338 22.8031C26.3966 23.7001 25.8679 24.5127 25.1845 25.1845C24.5125 25.8687 23.7 26.3965 22.8044 26.7337C21.9491 27.0661 20.9717 27.2933 19.5422 27.3593C18.1078 27.4253 17.6508 27.4399 14 27.4399C10.3492 27.4399 9.89225 27.4241 8.45905 27.3593C7.02953 27.2945 6.05207 27.0661 5.1968 26.7337C4.29989 26.3965 3.48725 25.8678 2.81547 25.1845C2.13172 24.5133 1.60259 23.701 1.26499 22.8044C0.933874 21.9491 0.706616 20.9716 0.640638 19.5421C0.574659 18.1065 0.559998 17.6495 0.559998 13.9999C0.559998 10.3491 0.575881 9.89218 0.640638 8.46021C0.705394 7.02824 0.933874 6.05079 1.26499 5.19552C1.60309 4.2988 2.13262 3.48657 2.8167 2.81541C3.48752 2.13181 4.29934 1.60269 5.19558 1.26493C6.05085 0.933813 7.0283 0.706555 8.45783 0.640577H8.45905ZM19.431 3.05978C18.0137 2.99502 17.5885 2.98158 14 2.98158C10.4115 2.98158 9.98633 2.99502 8.56902 3.05978C7.25801 3.11965 6.54691 3.33835 6.07284 3.52285C5.44605 3.76721 4.99764 4.05678 4.52724 4.52718C4.08133 4.96099 3.73817 5.4891 3.52291 6.07278C3.33841 6.54685 3.11971 7.25794 3.05984 8.56895C2.99508 9.98626 2.98164 10.4115 2.98164 13.9999C2.98164 17.5884 2.99508 18.0136 3.05984 19.4309C3.11971 20.7419 3.33841 21.453 3.52291 21.9271C3.73795 22.5099 4.08128 23.0389 4.52724 23.4727C4.96099 23.9187 5.49003 24.262 6.07284 24.477C6.54691 24.6615 7.25801 24.8802 8.56902 24.9401C9.98633 25.0049 10.4103 25.0183 14 25.0183C17.5897 25.0183 18.0137 25.0049 19.431 24.9401C20.742 24.8802 21.4531 24.6615 21.9272 24.477C22.554 24.2327 23.0024 23.9431 23.4728 23.4727C23.9187 23.0389 24.2621 22.5099 24.4771 21.9271C24.6616 21.453 24.8803 20.7419 24.9402 19.4309C25.0049 18.0136 25.0184 17.5884 25.0184 13.9999C25.0184 10.4115 25.0049 9.98626 24.9402 8.56895C24.8803 7.25794 24.6616 6.54685 24.4771 6.07278C24.2327 5.44599 23.9432 4.99758 23.4728 4.52718C23.0389 4.0813 22.5108 3.73814 21.9272 3.52285C21.4531 3.33835 20.742 3.11965 19.431 3.05978ZM12.2833 18.1431C13.2421 18.5422 14.3096 18.5961 15.3036 18.2955C16.2976 17.9949 17.1564 17.3586 17.7334 16.4952C18.3104 15.6318 18.5697 14.5948 18.467 13.5614C18.3644 12.5281 17.9062 11.5624 17.1706 10.8293C16.7017 10.3607 16.1348 10.0019 15.5106 9.77873C14.8864 9.55555 14.2205 9.47354 13.5608 9.53861C12.901 9.60368 12.264 9.8142 11.6954 10.155C11.1268 10.4959 10.6409 10.9585 10.2726 11.5097C9.90429 12.0609 9.66278 12.6868 9.56543 13.3426C9.46808 13.9983 9.51733 14.6674 9.70963 15.3018C9.90193 15.9362 10.2325 16.5201 10.6775 17.0114C11.1226 17.5027 11.671 17.8892 12.2833 18.1431ZM9.11517 9.11511C9.75665 8.47362 10.5182 7.96477 11.3563 7.6176C12.1945 7.27043 13.0928 7.09174 14 7.09174C14.9072 7.09174 15.8055 7.27043 16.6437 7.6176C17.4818 7.96477 18.2433 8.47362 18.8848 9.11511C19.5263 9.75659 20.0352 10.5181 20.3823 11.3563C20.7295 12.1944 20.9082 13.0927 20.9082 13.9999C20.9082 14.9071 20.7295 15.8054 20.3823 16.6436C20.0352 17.4817 19.5263 18.2433 18.8848 18.8848C17.5893 20.1803 15.8322 20.9081 14 20.9081C12.1678 20.9081 10.4107 20.1803 9.11517 18.8848C7.81963 17.5892 7.09181 15.8321 7.09181 13.9999C7.09181 12.1678 7.81963 10.4106 9.11517 9.11511ZM22.4403 8.12055C22.5993 7.97059 22.7265 7.79027 22.8146 7.59025C22.9026 7.39023 22.9496 7.17458 22.9528 6.95607C22.956 6.73756 22.9153 6.52063 22.8331 6.31813C22.751 6.11563 22.629 5.93167 22.4745 5.77715C22.32 5.62262 22.136 5.50067 21.9335 5.41852C21.731 5.33636 21.5141 5.29567 21.2956 5.29886C21.0771 5.30205 20.8614 5.34904 20.6614 5.43706C20.4614 5.52509 20.281 5.65235 20.1311 5.81131C19.8394 6.12047 19.6798 6.53111 19.686 6.95607C19.6922 7.38103 19.8637 7.78684 20.1643 8.08737C20.4648 8.38789 20.8706 8.55946 21.2956 8.56565C21.7205 8.57185 22.1312 8.41218 22.4403 8.12055Z" fill="#F8F5F1"/>
</svg>
