<svg width="24" height="25" viewBox="0 0 24 25" fill="none" xmlns="http://www.w3.org/2000/svg">
<path d="M9.69213 0.500092C4.33935 0.500092 8.39233e-05 4.83936 8.39233e-05 10.1921C8.39233e-05 15.5449 4.33935 19.8842 9.69213 19.8842C12.0367 19.8842 14.1855 19.0525 15.8618 17.667L22.4238 24.2299C22.597 24.403 22.8318 24.5002 23.0767 24.5001C23.3216 24.5 23.5564 24.4027 23.7294 24.2295C23.9025 24.0563 23.9997 23.8214 23.9996 23.5765C23.9995 23.3317 23.9022 23.0969 23.729 22.9238L17.167 16.3609C18.603 14.6262 19.3873 12.4441 19.3842 10.1921C19.3842 4.83936 15.0449 0.500092 9.69213 0.500092ZM1.84619 10.1921C1.84619 8.11126 2.67281 6.11562 4.14421 4.64422C5.61561 3.17282 7.61126 2.3462 9.69213 2.3462C11.773 2.3462 13.7686 3.17282 15.24 4.64422C16.7114 6.11562 17.5381 8.11126 17.5381 10.1921C17.5381 12.273 16.7114 14.2687 15.24 15.7401C13.7686 17.2115 11.773 18.0381 9.69213 18.0381C7.61126 18.0381 5.61561 17.2115 4.14421 15.7401C2.67281 14.2687 1.84619 12.273 1.84619 10.1921Z" fill="#F8F5F1"/>
</svg>
