<svg width="30" height="20" viewBox="0 0 30 20" fill="none" xmlns="http://www.w3.org/2000/svg">
<path d="M28.7933 3.44779C28.6285 2.85962 28.3073 2.32712 27.864 1.9069C27.4081 1.47375 26.8494 1.16391 26.2406 1.00663C23.962 0.406041 14.8331 0.406041 14.8331 0.406041C11.0273 0.362741 7.22255 0.553184 3.44016 0.976294C2.83131 1.1452 2.27364 1.46196 1.81676 1.8984C1.36784 2.33034 1.04267 2.86298 0.872809 3.44658C0.464767 5.64477 0.266512 7.87677 0.280717 10.1125C0.266157 12.3462 0.463926 14.5774 0.872809 16.7784C1.03903 17.3595 1.36298 17.8897 1.81312 18.318C2.26325 18.7463 2.8238 19.0557 3.44016 19.2195C5.74908 19.8189 14.8331 19.8189 14.8331 19.8189C18.6437 19.8623 22.4533 19.6718 26.2406 19.2486C26.8494 19.0914 27.4081 18.7815 27.864 18.3484C28.3071 17.9282 28.6279 17.3957 28.7921 16.8075C29.2108 14.6101 29.4144 12.3772 29.4 10.1404C29.4315 7.89407 29.2282 5.65062 28.7933 3.44658V3.44779ZM11.9309 14.2668V5.95933L19.5261 10.1137L11.9309 14.2668Z" fill="#F8F5F1"/>
</svg>
